<svg version="1.1" xmlns="http://www.w3.org/2000/svg" xmlns:xlink="http://www.w3.org/1999/xlink" width="987" height="494" viewBox="0 0 987 494"><defs/><g transform="matrix(1,0,0,1,0,0)"><g><g><g><path fill="none" stroke="#d3d3d3" paint-order="fill stroke markers" d=" M 0 0 L 1200 0" stroke-miterlimit="10" stroke-opacity="0.8" stroke-dasharray="5"/></g><g><path fill="none" stroke="#d3d3d3" paint-order="fill stroke markers" d=" M 0 0 L 0 800" stroke-miterlimit="10" stroke-opacity="0.8" stroke-dasharray="5"/></g></g><g id="_9259F91A-0AFF-4192-B795-BDA6F51CB484" bpmn2nodeid="_9259F91A-0AFF-4192-B795-BDA6F51CB484" transform="matrix(1,0,0,1,185,365)"><g><path fill="none" stroke="none"/></g><g transform="matrix(0.125,0,0,0.125,0,0)"><g transform="matrix(1,0,0,1,0,0)"><path fill="#e8fae6" stroke="black" id="_9259F91A-0AFF-4192-B795-BDA6F51CB484?shapeType=BACKGROUND" paint-order="fill stroke markers" d=" M 0 0 M 444 224 C 444 263.9 434.2 300.8 414.4 334.5 C 394.7 368.2 368 394.9 334.4 414.5 C 300.79999999999995 434.1 263.9 444 224 444 C 184.10000000000002 444 147.2 434.2 113.5 414.4 C 79.8 394.7 53.1 368 33.5 334.4 C 13.899999999999999 300.79999999999995 4 263.9 4 224 C 4 184.10000000000002 13.8 147.2 33.6 113.5 C 53.400000000000006 79.80000000000001 80.1 53.1 113.6 33.5 C 147.1 13.899999999999999 184.1 4 224 4 C 263.9 4 300.8 13.8 334.5 33.6 C 368.2 53.400000000000006 394.9 80.1 414.5 113.6 C 434.1 147.1 444 184.1 444 224 Z" stroke-miterlimit="10" stroke-dasharray=""/></g><g><g transform="matrix(1,0,0,1,0,0)"><g transform="matrix(1,0,0,1,0,0)"><path fill="#4aa241" stroke="black" id="_9259F91A-0AFF-4192-B795-BDA6F51CB484?shapeType=BORDER&amp;renderType=FILL" paint-order="fill stroke markers" d=" M 0 0 M 224 0 C 100.3 0 0 100.3 0 224 C 0 347.7 100.3 448 224 448 C 347.7 448 448 347.7 448 224 C 448 100.30000000000001 347.7 0 224 0 Z M 0 0 M 224 432 C 109.1 432 16 338.9 16 224 C 16 109.10000000000002 109.1 16 224 16 C 338.9 16 432 109.1 432 224 C 432 338.9 338.9 432 224 432 Z" stroke-miterlimit="10" stroke-dasharray=""/></g></g></g></g><g transform="matrix(1,0,0,1,28,61)"/></g><g transform="matrix(1,0,0,1,185,365)"/><g id="_133A5D57-7288-42A9-B975-2D4600D07E9E" bpmn2nodeid="_133A5D57-7288-42A9-B975-2D4600D07E9E" transform="matrix(1,0,0,1,396,342)"><g><path fill="none" stroke="none"/></g><g transform="matrix(1,0,0,1,0,0)"><path fill="#ffffff" stroke="none" id="_133A5D57-7288-42A9-B975-2D4600D07E9E?shapeType=BACKGROUND" paint-order="stroke fill markers" d=" M 2 0 L 152 0 L 152 0 A 2 2 0 0 1 154 2 L 154 100 L 154 100 A 2 2 0 0 1 152 102 L 2 102 L 2 102 A 2 2 0 0 1 0 100 L 0 2 L 0 2.0000000000000004 A 2 2 0 0 1 1.9999999999999996 0 Z"/></g><g transform="matrix(1,0,0,1,0,0)"><path fill="none" stroke="#000000" id="_133A5D57-7288-42A9-B975-2D4600D07E9E?shapeType=BORDER&amp;renderType=STROKE" paint-order="fill stroke markers" d=" M 2 0 L 152 0 L 152 0 A 2 2 0 0 1 154 2 L 154 100 L 154 100 A 2 2 0 0 1 152 102 L 2 102 L 2 102 A 2 2 0 0 1 0 100 L 0 2 L 0 2.0000000000000004 A 2 2 0 0 1 1.9999999999999996 0 Z" stroke-miterlimit="10" stroke-width="1.5" stroke-dasharray=""/></g><g><g transform="matrix(0.02,0,0,0.02,1.96,1.96)"><g transform="matrix(1,0,0,1,0,0)"><path fill="#393f44" stroke="black" id="_133A5D57-7288-42A9-B975-2D4600D07E9E_task__2e5s__zbiT" paint-order="fill stroke markers" d=" M 0 0 M 825.74609 438.17383 C 825.69979 475.1723 825.75629 512.17163 825.85156 549.16992 C 794.29829 558.09661 765.46524 570.55412 738.23633 585.8144500000001 L 658.6542999999999 507.1894500000001 L 509.8476599999999 656.85742 L 589.42383 735.46875 C 574.05216 763.02029 562.0487099999999 792.29945 553.67188 822.7109399999999 L 440.94727 822.9160199999999 L 440.94727 1033.7051 L 554.84961 1033.2948999999999 C 565.26551 1074.5932999999998 587.93422 1111.7200999999998 610.51172 1144.918 L 610.51172 963.0937499999999 L 510.94727 963.4511699999999 L 510.94727 892.78906 L 610.01562 892.60938 L 615.57617 864.4375 C 623.68569 823.35291 639.74603 784.18805 662.8203100000001 749.14453 L 678.6054700000001 725.17188 L 609.0019500000001 656.41016 L 659.0957000000001 606.02539 L 728.82617 674.91797 L 752.55664 659.0820299999999 C 788.8205 635.15649 828.48451 619.1185099999999 868.03711 610.7656199999999 L 895.99609 604.9609399999999 L 895.74609 508.1757799999999 L 967.71289 508.1757799999999 L 967.15625 604.4570299999999 L 995.58398 604.4570299999999 L 1155.9902 604.4570299999999 C 1138.2767999999999 583.3133799999999 1064.8698 555.7993799999999 1037.4823999999999 548.13281 L 1038.1172 438.1757799999999 C 959.7171599999999 438.1737799999999 898.2517399999999 438.17977999999994 825.7460899999999 438.1737799999999 Z M 0 0 M 1024.9043 639.83203 L 1025.1914 750.82422 C 993.6369799999999 759.75091 964.80383 772.20673 937.57422 787.46875 L 857.99023 708.84375 L 709.18359 858.51172 L 788.76172 937.1230499999999 C 773.38937 964.67608 761.3846199999999 993.9542999999999 753.00781 1024.3672 L 640.2851599999999 1024.5702999999999 L 640.2851599999999 1235.3593999999998 L 754.1855499999999 1234.9511999999997 C 763.1509799999999 1266.2081999999998 775.5796899999999 1294.7509999999997 790.8105499999999 1321.6972999999998 L 709.3164099999999 1402.8729999999998 L 859.7812499999999 1550.7519999999997 L 940.9824199999999 1469.9276999999997 C 968.7967199999999 1485.3723999999997 998.3629 1497.3636999999997 1029.0156 1505.7089999999998 L 1029.0686 1620.4218999999998 C 1101.4603 1621.0557 1178.5356000000002 1620.7291999999998 1240.4045 1620.7226999999998 L 1240.4045 1504.6522999999997 C 1271.9823000000001 1495.7484999999997 1300.9055 1483.2013999999997 1328.1408000000001 1467.9472999999998 L 1409.2756000000002 1547.9433999999999 L 1558.1799 1398.4629 L 1476.8752000000002 1318.3398 C 1492.2822 1290.7142 1504.2876 1261.3861 1512.6740000000002 1230.9414 L 1623.0529000000001 1230.2598 L 1623.0529000000001 1019.6738 L 1511.4357000000002 1020.3535 C 1502.4633000000001 989.0665200000001 1490.2144000000003 960.7167400000001 1474.7814000000003 933.5918 L 1551.9025000000004 856.27344 L 1401.5217000000005 708.1425800000001 L 1324.5002000000004 785.4277300000001 C 1296.7999000000004 770.1087700000002 1267.3539000000005 758.1453700000001 1236.8205000000005 749.7890600000001 L 1237.4533000000006 639.83203 L 1024.9045000000006 639.83203 Z M 0 0 M 1095.0839999999998 709.83203 L 1167.0507999999998 709.83203 L 1166.4960999999998 806.11523 L 1194.9218999999998 811.69336 C 1236.1942999999999 819.79239 1275.7524999999998 835.83275 1310.9374999999998 858.76562 L 1334.7616999999998 874.29492 L 1401.9784999999997 806.84961 L 1452.5956999999996 856.7109399999999 L 1385.2851999999996 924.19336 L 1401.4804999999997 948.09961 C 1425.2451999999996 983.9725 1441.0087999999996 1022.7495 1449.9081999999996 1062.6797 L 1455.7636999999995 1090.6914 L 1553.0448999999994 1090.0996 L 1553.0448999999994 1160.6895 L 1456.3065999999994 1161.2852 L 1450.7499999999995 1189.2969 C 1442.5901999999996 1230.4276 1426.5648999999996 1269.5910000000001 1403.4511999999995 1304.6953 L 1387.6483999999996 1328.7012000000002 L 1458.9061999999997 1398.9238000000003 L 1408.8202999999996 1449.2031000000002 L 1337.5546999999997 1378.9375000000002 L 1313.8651999999997 1394.6758000000002 C 1277.5899999999997 1418.3823000000002 1238.2405999999996 1434.7985 1198.5409999999997 1442.8867000000002 L 1170.3964999999996 1448.5078000000003 L 1170.3964999999996 1550.7227000000003 C 1151.1554999999996 1550.7697000000003 1130.1655999999996 1550.7397000000003 1099.0272999999995 1550.6957000000002 L 1098.9822999999994 1449.2465000000002 L 1070.7107999999994 1443.7250000000001 C 1029.3806999999995 1435.6542000000002 989.8875999999993 1419.6875000000002 954.7635699999994 1396.6586000000002 L 931.0096699999993 1381.0844000000002 L 859.4686499999993 1452.2953000000002 L 808.8436499999993 1402.5375000000001 L 880.4842799999993 1331.1762 L 864.1366199999993 1307.1723000000002 C 840.3497899999993 1271.3781000000001 824.6137199999993 1232.5600000000002 815.6991199999993 1192.6762 L 809.8495099999993 1164.7504000000001 L 710.2850599999994 1165.1059 L 710.2850599999994 1094.4457 L 809.3534199999993 1094.2641 L 814.9139599999993 1066.0961000000002 C 823.0235399999993 1025.0112000000001 839.0841299999993 985.8442300000002 862.1580999999993 950.8011800000002 L 877.9432599999993 926.8265700000002 L 808.3377899999994 858.0648500000002 L 858.4315399999994 807.6800900000002 L 928.1639599999994 876.5726700000001 L 951.8944299999994 860.7386800000002 C 988.2042899999993 836.9689600000002 1026.7352999999994 821.1972900000002 1067.3748999999993 812.4242300000002 L 1095.3357999999994 806.6195400000001 L 1095.0838999999994 709.8324300000002 Z M 0 0 M 1132.2499999999998 967.03516 C 1045.6030999999998 967.03516 974.6113299999997 1038.0288 974.6113299999997 1124.6758 C 974.6113299999997 1211.3228 1045.6030999999998 1282.3125 1132.2499999999998 1282.3125 C 1218.8968999999997 1282.3125 1289.8886999999997 1211.3228 1289.8886999999997 1124.6758 C 1289.8886999999997 1038.0288 1218.8968999999997 967.03516 1132.2499999999998 967.03516 Z M 0 0 M 1132.2499999999998 1037.0352 C 1181.0661999999998 1037.0352 1219.8886999999997 1075.8597 1219.8886999999997 1124.6758 C 1219.8886999999997 1173.4919 1181.0661999999998 1212.3125 1132.2499999999998 1212.3125 C 1083.4337999999998 1212.3125 1044.6132999999998 1173.4919 1044.6132999999998 1124.6758 C 1044.6132999999998 1075.8597 1083.4337999999998 1037.0352 1132.2499999999998 1037.0352 Z" stroke-miterlimit="10" stroke-dasharray=""/></g><g transform="matrix(1,0,0,1,0,0)"><path fill="none" stroke="black" id="_133A5D57-7288-42A9-B975-2D4600D07E9E_task__2e5s__R81z" paint-order="fill stroke markers" d=" M 0 0 M 825.74609 438.17383 C 825.69979 475.1723 825.75629 512.17163 825.85156 549.16992 C 794.29829 558.09661 765.46524 570.55412 738.23633 585.8144500000001 L 658.6542999999999 507.1894500000001 L 509.8476599999999 656.85742 L 589.42383 735.46875 C 574.05216 763.02029 562.0487099999999 792.29945 553.67188 822.7109399999999 L 440.94727 822.9160199999999 L 440.94727 1033.7051 L 554.84961 1033.2948999999999 C 565.26551 1074.5932999999998 587.93422 1111.7200999999998 610.51172 1144.918 L 610.51172 963.0937499999999 L 510.94727 963.4511699999999 L 510.94727 892.78906 L 610.01562 892.60938 L 615.57617 864.4375 C 623.68569 823.35291 639.74603 784.18805 662.8203100000001 749.14453 L 678.6054700000001 725.17188 L 609.0019500000001 656.41016 L 659.0957000000001 606.02539 L 728.82617 674.91797 L 752.55664 659.0820299999999 C 788.8205 635.15649 828.48451 619.1185099999999 868.03711 610.7656199999999 L 895.99609 604.9609399999999 L 895.74609 508.1757799999999 L 967.71289 508.1757799999999 L 967.15625 604.4570299999999 L 995.58398 604.4570299999999 L 1155.9902 604.4570299999999 C 1138.2767999999999 583.3133799999999 1064.8698 555.7993799999999 1037.4823999999999 548.13281 L 1038.1172 438.1757799999999 C 959.7171599999999 438.1737799999999 898.2517399999999 438.17977999999994 825.7460899999999 438.1737799999999 Z M 0 0 M 1024.9043 639.83203 L 1025.1914 750.82422 C 993.6369799999999 759.75091 964.80383 772.20673 937.57422 787.46875 L 857.99023 708.84375 L 709.18359 858.51172 L 788.76172 937.1230499999999 C 773.38937 964.67608 761.3846199999999 993.9542999999999 753.00781 1024.3672 L 640.2851599999999 1024.5702999999999 L 640.2851599999999 1235.3593999999998 L 754.1855499999999 1234.9511999999997 C 763.1509799999999 1266.2081999999998 775.5796899999999 1294.7509999999997 790.8105499999999 1321.6972999999998 L 709.3164099999999 1402.8729999999998 L 859.7812499999999 1550.7519999999997 L 940.9824199999999 1469.9276999999997 C 968.7967199999999 1485.3723999999997 998.3629 1497.3636999999997 1029.0156 1505.7089999999998 L 1029.0686 1620.4218999999998 C 1101.4603 1621.0557 1178.5356000000002 1620.7291999999998 1240.4045 1620.7226999999998 L 1240.4045 1504.6522999999997 C 1271.9823000000001 1495.7484999999997 1300.9055 1483.2013999999997 1328.1408000000001 1467.9472999999998 L 1409.2756000000002 1547.9433999999999 L 1558.1799 1398.4629 L 1476.8752000000002 1318.3398 C 1492.2822 1290.7142 1504.2876 1261.3861 1512.6740000000002 1230.9414 L 1623.0529000000001 1230.2598 L 1623.0529000000001 1019.6738 L 1511.4357000000002 1020.3535 C 1502.4633000000001 989.0665200000001 1490.2144000000003 960.7167400000001 1474.7814000000003 933.5918 L 1551.9025000000004 856.27344 L 1401.5217000000005 708.1425800000001 L 1324.5002000000004 785.4277300000001 C 1296.7999000000004 770.1087700000002 1267.3539000000005 758.1453700000001 1236.8205000000005 749.7890600000001 L 1237.4533000000006 639.83203 L 1024.9045000000006 639.83203 Z M 0 0 M 1095.0839999999998 709.83203 L 1167.0507999999998 709.83203 L 1166.4960999999998 806.11523 L 1194.9218999999998 811.69336 C 1236.1942999999999 819.79239 1275.7524999999998 835.83275 1310.9374999999998 858.76562 L 1334.7616999999998 874.29492 L 1401.9784999999997 806.84961 L 1452.5956999999996 856.7109399999999 L 1385.2851999999996 924.19336 L 1401.4804999999997 948.09961 C 1425.2451999999996 983.9725 1441.0087999999996 1022.7495 1449.9081999999996 1062.6797 L 1455.7636999999995 1090.6914 L 1553.0448999999994 1090.0996 L 1553.0448999999994 1160.6895 L 1456.3065999999994 1161.2852 L 1450.7499999999995 1189.2969 C 1442.5901999999996 1230.4276 1426.5648999999996 1269.5910000000001 1403.4511999999995 1304.6953 L 1387.6483999999996 1328.7012000000002 L 1458.9061999999997 1398.9238000000003 L 1408.8202999999996 1449.2031000000002 L 1337.5546999999997 1378.9375000000002 L 1313.8651999999997 1394.6758000000002 C 1277.5899999999997 1418.3823000000002 1238.2405999999996 1434.7985 1198.5409999999997 1442.8867000000002 L 1170.3964999999996 1448.5078000000003 L 1170.3964999999996 1550.7227000000003 C 1151.1554999999996 1550.7697000000003 1130.1655999999996 1550.7397000000003 1099.0272999999995 1550.6957000000002 L 1098.9822999999994 1449.2465000000002 L 1070.7107999999994 1443.7250000000001 C 1029.3806999999995 1435.6542000000002 989.8875999999993 1419.6875000000002 954.7635699999994 1396.6586000000002 L 931.0096699999993 1381.0844000000002 L 859.4686499999993 1452.2953000000002 L 808.8436499999993 1402.5375000000001 L 880.4842799999993 1331.1762 L 864.1366199999993 1307.1723000000002 C 840.3497899999993 1271.3781000000001 824.6137199999993 1232.5600000000002 815.6991199999993 1192.6762 L 809.8495099999993 1164.7504000000001 L 710.2850599999994 1165.1059 L 710.2850599999994 1094.4457 L 809.3534199999993 1094.2641 L 814.9139599999993 1066.0961000000002 C 823.0235399999993 1025.0112000000001 839.0841299999993 985.8442300000002 862.1580999999993 950.8011800000002 L 877.9432599999993 926.8265700000002 L 808.3377899999994 858.0648500000002 L 858.4315399999994 807.6800900000002 L 928.1639599999994 876.5726700000001 L 951.8944299999994 860.7386800000002 C 988.2042899999993 836.9689600000002 1026.7352999999994 821.1972900000002 1067.3748999999993 812.4242300000002 L 1095.3357999999994 806.6195400000001 L 1095.0838999999994 709.8324300000002 Z M 0 0 M 1132.2499999999998 967.03516 C 1045.6030999999998 967.03516 974.6113299999997 1038.0288 974.6113299999997 1124.6758 C 974.6113299999997 1211.3228 1045.6030999999998 1282.3125 1132.2499999999998 1282.3125 C 1218.8968999999997 1282.3125 1289.8886999999997 1211.3228 1289.8886999999997 1124.6758 C 1289.8886999999997 1038.0288 1218.8968999999997 967.03516 1132.2499999999998 967.03516 Z M 0 0 M 1132.2499999999998 1037.0352 C 1181.0661999999998 1037.0352 1219.8886999999997 1075.8597 1219.8886999999997 1124.6758 C 1219.8886999999997 1173.4919 1181.0661999999998 1212.3125 1132.2499999999998 1212.3125 C 1083.4337999999998 1212.3125 1044.6132999999998 1173.4919 1044.6132999999998 1124.6758 C 1044.6132999999998 1075.8597 1083.4337999999998 1037.0352 1132.2499999999998 1037.0352 Z" stroke-miterlimit="10" stroke-dasharray=""/></g><g transform="matrix(1,0,0,1,0,0)"><path fill="#393f44" stroke="black" id="_133A5D57-7288-42A9-B975-2D4600D07E9E_task__2e5s__6sqx" paint-order="fill stroke markers" d=" M 0 0 M 825.74609 438.17383 C 825.69979 475.1723 825.75629 512.17163 825.85156 549.16992 C 794.29829 558.09661 765.46524 570.55412 738.23633 585.8144500000001 L 658.6542999999999 507.1894500000001 L 509.8476599999999 656.85742 L 589.42383 735.46875 C 574.05216 763.02029 562.0487099999999 792.29945 553.67188 822.7109399999999 L 440.94727 822.9160199999999 L 440.94727 1033.7051 L 554.84961 1033.2948999999999 C 565.26551 1074.5932999999998 587.93422 1111.7200999999998 610.51172 1144.918 L 610.51172 963.0937499999999 L 510.94727 963.4511699999999 L 510.94727 892.78906 L 610.01562 892.60938 L 615.57617 864.4375 C 623.68569 823.35291 639.74603 784.18805 662.8203100000001 749.14453 L 678.6054700000001 725.17188 L 609.0019500000001 656.41016 L 659.0957000000001 606.02539 L 728.82617 674.91797 L 752.55664 659.0820299999999 C 788.8205 635.15649 828.48451 619.1185099999999 868.03711 610.7656199999999 L 895.99609 604.9609399999999 L 895.74609 508.1757799999999 L 967.71289 508.1757799999999 L 967.15625 604.4570299999999 L 995.58398 604.4570299999999 L 1155.9902 604.4570299999999 C 1138.2767999999999 583.3133799999999 1064.8698 555.7993799999999 1037.4823999999999 548.13281 L 1038.1172 438.1757799999999 C 959.7171599999999 438.1737799999999 898.2517399999999 438.17977999999994 825.7460899999999 438.1737799999999 Z M 0 0 M 1024.9043 639.83203 L 1025.1914 750.82422 C 993.6369799999999 759.75091 964.80383 772.20673 937.57422 787.46875 L 857.99023 708.84375 L 709.18359 858.51172 L 788.76172 937.1230499999999 C 773.38937 964.67608 761.3846199999999 993.9542999999999 753.00781 1024.3672 L 640.2851599999999 1024.5702999999999 L 640.2851599999999 1235.3593999999998 L 754.1855499999999 1234.9511999999997 C 763.1509799999999 1266.2081999999998 775.5796899999999 1294.7509999999997 790.8105499999999 1321.6972999999998 L 709.3164099999999 1402.8729999999998 L 859.7812499999999 1550.7519999999997 L 940.9824199999999 1469.9276999999997 C 968.7967199999999 1485.3723999999997 998.3629 1497.3636999999997 1029.0156 1505.7089999999998 L 1029.0686 1620.4218999999998 C 1101.4603 1621.0557 1178.5356000000002 1620.7291999999998 1240.4045 1620.7226999999998 L 1240.4045 1504.6522999999997 C 1271.9823000000001 1495.7484999999997 1300.9055 1483.2013999999997 1328.1408000000001 1467.9472999999998 L 1409.2756000000002 1547.9433999999999 L 1558.1799 1398.4629 L 1476.8752000000002 1318.3398 C 1492.2822 1290.7142 1504.2876 1261.3861 1512.6740000000002 1230.9414 L 1623.0529000000001 1230.2598 L 1623.0529000000001 1019.6738 L 1511.4357000000002 1020.3535 C 1502.4633000000001 989.0665200000001 1490.2144000000003 960.7167400000001 1474.7814000000003 933.5918 L 1551.9025000000004 856.27344 L 1401.5217000000005 708.1425800000001 L 1324.5002000000004 785.4277300000001 C 1296.7999000000004 770.1087700000002 1267.3539000000005 758.1453700000001 1236.8205000000005 749.7890600000001 L 1237.4533000000006 639.83203 L 1024.9045000000006 639.83203 Z M 0 0 M 1095.0839999999998 709.83203 L 1167.0507999999998 709.83203 L 1166.4960999999998 806.11523 L 1194.9218999999998 811.69336 C 1236.1942999999999 819.79239 1275.7524999999998 835.83275 1310.9374999999998 858.76562 L 1334.7616999999998 874.29492 L 1401.9784999999997 806.84961 L 1452.5956999999996 856.7109399999999 L 1385.2851999999996 924.19336 L 1401.4804999999997 948.09961 C 1425.2451999999996 983.9725 1441.0087999999996 1022.7495 1449.9081999999996 1062.6797 L 1455.7636999999995 1090.6914 L 1553.0448999999994 1090.0996 L 1553.0448999999994 1160.6895 L 1456.3065999999994 1161.2852 L 1450.7499999999995 1189.2969 C 1442.5901999999996 1230.4276 1426.5648999999996 1269.5910000000001 1403.4511999999995 1304.6953 L 1387.6483999999996 1328.7012000000002 L 1458.9061999999997 1398.9238000000003 L 1408.8202999999996 1449.2031000000002 L 1337.5546999999997 1378.9375000000002 L 1313.8651999999997 1394.6758000000002 C 1277.5899999999997 1418.3823000000002 1238.2405999999996 1434.7985 1198.5409999999997 1442.8867000000002 L 1170.3964999999996 1448.5078000000003 L 1170.3964999999996 1550.7227000000003 C 1151.1554999999996 1550.7697000000003 1130.1655999999996 1550.7397000000003 1099.0272999999995 1550.6957000000002 L 1098.9822999999994 1449.2465000000002 L 1070.7107999999994 1443.7250000000001 C 1029.3806999999995 1435.6542000000002 989.8875999999993 1419.6875000000002 954.7635699999994 1396.6586000000002 L 931.0096699999993 1381.0844000000002 L 859.4686499999993 1452.2953000000002 L 808.8436499999993 1402.5375000000001 L 880.4842799999993 1331.1762 L 864.1366199999993 1307.1723000000002 C 840.3497899999993 1271.3781000000001 824.6137199999993 1232.5600000000002 815.6991199999993 1192.6762 L 809.8495099999993 1164.7504000000001 L 710.2850599999994 1165.1059 L 710.2850599999994 1094.4457 L 809.3534199999993 1094.2641 L 814.9139599999993 1066.0961000000002 C 823.0235399999993 1025.0112000000001 839.0841299999993 985.8442300000002 862.1580999999993 950.8011800000002 L 877.9432599999993 926.8265700000002 L 808.3377899999994 858.0648500000002 L 858.4315399999994 807.6800900000002 L 928.1639599999994 876.5726700000001 L 951.8944299999994 860.7386800000002 C 988.2042899999993 836.9689600000002 1026.7352999999994 821.1972900000002 1067.3748999999993 812.4242300000002 L 1095.3357999999994 806.6195400000001 L 1095.0838999999994 709.8324300000002 Z M 0 0 M 1132.2499999999998 967.03516 C 1045.6030999999998 967.03516 974.6113299999997 1038.0288 974.6113299999997 1124.6758 C 974.6113299999997 1211.3228 1045.6030999999998 1282.3125 1132.2499999999998 1282.3125 C 1218.8968999999997 1282.3125 1289.8886999999997 1211.3228 1289.8886999999997 1124.6758 C 1289.8886999999997 1038.0288 1218.8968999999997 967.03516 1132.2499999999998 967.03516 Z M 0 0 M 1132.2499999999998 1037.0352 C 1181.0661999999998 1037.0352 1219.8886999999997 1075.8597 1219.8886999999997 1124.6758 C 1219.8886999999997 1173.4919 1181.0661999999998 1212.3125 1132.2499999999998 1212.3125 C 1083.4337999999998 1212.3125 1044.6132999999998 1173.4919 1044.6132999999998 1124.6758 C 1044.6132999999998 1075.8597 1083.4337999999998 1037.0352 1132.2499999999998 1037.0352 Z" stroke-miterlimit="10" stroke-dasharray=""/></g></g></g><g transform="matrix(1,0,0,1,35,43.5)"><text fill="#000000" stroke="none" font-family="Open Sans" font-size="12pt" font-style="normal" font-weight="normal" text-decoration="normal" x="44.80078125" y="12" text-anchor="middle" dominant-baseline="alphabetic">Service Task</text></g></g><g transform="matrix(1,0,0,1,396,342)"/><g id="_C75200AC-756A-4F45-B382-749C4D26024C" bpmn2nodeid="_C75200AC-756A-4F45-B382-749C4D26024C" transform="matrix(1,0,0,1,881,365)"><g><path fill="none" stroke="none"/></g><g transform="matrix(0.125,0,0,0.125,0,0)"><g transform="matrix(1,0,0,1,0,0)"><path fill="#fce7e7" stroke="black" id="_C75200AC-756A-4F45-B382-749C4D26024C?shapeType=BACKGROUND" paint-order="fill stroke markers" d=" M 0 0 M 444 224 C 444 263.9 434.2 300.8 414.4 334.5 C 394.7 368.2 368 394.9 334.4 414.5 C 300.79999999999995 434.1 263.9 444 224 444 C 184.10000000000002 444 147.2 434.2 113.5 414.4 C 79.8 394.7 53.1 368 33.5 334.4 C 13.899999999999999 300.79999999999995 4 263.9 4 224 C 4 184.10000000000002 13.8 147.2 33.6 113.5 C 53.400000000000006 79.80000000000001 80.1 53.1 113.6 33.5 C 147.1 13.899999999999999 184.1 4 224 4 C 263.9 4 300.8 13.8 334.5 33.6 C 368.2 53.400000000000006 394.9 80.1 414.5 113.6 C 434.1 147.1 444 184.1 444 224 Z" stroke-miterlimit="10" stroke-dasharray=""/></g><g><g transform="matrix(1,0,0,1,0,0)"><g transform="matrix(1,0,0,1,0,0)"><path fill="#a30000" stroke="black" id="_C75200AC-756A-4F45-B382-749C4D26024C?shapeType=BORDER&amp;renderType=FILL" paint-order="fill stroke markers" d=" M 0 0 M 224 0 C 100.3 0 0 100.3 0 224 C 0 347.7 100.3 448 224 448 C 347.7 448 448 347.7 448 224 C 448 100.30000000000001 347.7 0 224 0 Z M 0 0 M 224 400 C 126.8 400 48 321.2 48 224 C 48 126.80000000000001 126.8 48 224 48 C 321.2 48 400 126.8 400 224 C 400 321.2 321.2 400 224 400 Z" stroke-miterlimit="10" stroke-dasharray=""/></g></g></g></g><g transform="matrix(1,0,0,1,28,61)"/></g><g transform="matrix(1,0,0,1,881,365)"/><g id="_C71E8B20-7322-496A-9B8F-CE15E131D2E0" bpmn2nodeid="_C71E8B20-7322-496A-9B8F-CE15E131D2E0" transform="matrix(1,0,0,1,775,365)"><g><path fill="none" stroke="none"/></g><g transform="matrix(0.125,0,0,0.125,0,0)"><g transform="matrix(1,0,0,1,0,0)"><path fill="#fef4ea" stroke="black" id="_C71E8B20-7322-496A-9B8F-CE15E131D2E0?shapeType=BACKGROUND" paint-order="fill stroke markers" d=" M 0 0 M 224.4 4.3 C 216.4 4.3 208.4 7.3 202.3 13.399999999999999 L 13.5 202.2 C 1.3000000000000007 214.39999999999998 1.3000000000000007 234.2 13.5 246.39999999999998 L 202.2 435.09999999999997 C 208.29999999999998 441.2 216.39999999999998 444.2 224.29999999999998 444.2 C 232.2 444.2 240.29999999999998 441.2 246.39999999999998 435.09999999999997 L 435.09999999999997 246.39999999999998 C 447.29999999999995 234.2 447.29999999999995 214.39999999999998 435.09999999999997 202.2 L 246.5 13.4 C 240.4 7.3 232.4 4.3 224.4 4.3 L 224.4 4.3 Z" stroke-miterlimit="10" stroke-dasharray=""/></g><g><g transform="matrix(1,0,0,1,0,0)"><g transform="matrix(1,0,0,1,0,0)"><path fill="#ec7a08" stroke="black" id="_C71E8B20-7322-496A-9B8F-CE15E131D2E0?shapeType=BORDER&amp;renderType=FILL" paint-order="fill stroke markers" d=" M 0 0 M 20.8 212.7 L 213.3 20.2 C 219.60000000000002 13.899999999999999 229.70000000000002 13.899999999999999 235.9 20.2 L 428.4 212.7 C 434.7 219 434.7 229.1 428.4 235.29999999999998 L 235.9 427.8 C 229.6 434.1 219.5 434.1 213.3 427.8 L 20.8 235.3 C 14.5 229.1 14.5 218.9 20.8 212.7 L 20.8 212.7 Z M 0 0 M 0 224 C 0 232.1 3.1 240.3 9.3 246.5 L 201.5 438.7 C 213.9 451.09999999999997 234.1 451.09999999999997 246.5 438.7 L 438.7 246.5 C 444.9 240.3 448 232.1 448 224 C 448 215.9 444.9 207.7 438.7 201.5 L 246.5 9.3 C 234.1 -3.0999999999999996 213.9 -3.0999999999999996 201.5 9.3 L 9.3 201.5 C 3.1 207.7 0 215.9 0 224 L 0 224 Z" stroke-miterlimit="10" stroke-dasharray=""/></g></g></g><g><g transform="matrix(1,0,0,1,0,0)"><g transform="matrix(1,0,0,1,0,0)"><path fill="#ec7a08" stroke="black" id="_C71E8B20-7322-496A-9B8F-CE15E131D2E0_exclusive" paint-order="fill stroke markers" d=" M 0 0 M 298.2 269.2 C 298.2 272.59999999999997 297.09999999999997 275.3 294.7 277.7 L 277.7 294.7 C 275.3 297.09999999999997 272.59999999999997 298.2 269.2 298.2 C 265.8 298.2 263.09999999999997 297.09999999999997 260.7 294.7 L 224 258 L 187.2 294.8 C 184.79999999999998 297.2 182.1 298.3 178.7 298.3 C 175.29999999999998 298.3 172.6 297.2 170.2 294.8 L 153.2 277.8 C 150.79999999999998 275.40000000000003 149.7 272.7 149.7 269.3 C 149.7 265.90000000000003 150.79999999999998 263.2 153.2 260.8 L 190 224 L 153.2 187.2 C 150.79999999999998 184.79999999999998 149.7 182 149.7 178.7 C 149.7 175.29999999999998 150.79999999999998 172.5 153.2 170.2 L 170.2 153.2 C 172.6 150.79999999999998 175.29999999999998 149.7 178.7 149.7 C 182.1 149.7 184.79999999999998 150.79999999999998 187.2 153.2 L 224 190 L 260.8 153.2 C 263.2 150.79999999999998 265.90000000000003 149.7 269.3 149.7 C 272.7 149.7 275.40000000000003 150.79999999999998 277.8 153.2 L 294.8 170.2 C 297.2 172.5 298.3 175.29999999999998 298.3 178.7 C 298.3 182 297.2 184.79999999999998 294.8 187.2 L 258 224 L 294.8 260.8 C 297.1 263.1 298.2 265.9 298.2 269.2 Z" stroke-miterlimit="10" stroke-dasharray=""/></g></g></g></g><g transform="matrix(1,0,0,1,28,61)"/></g><g transform="matrix(1,0,0,1,775,365)"/><g id="_3FC497C0-46E9-4CB4-B7AE-6AFA9697554B" bpmn2nodeid="_3FC497C0-46E9-4CB4-B7AE-6AFA9697554B" transform="matrix(1,0,0,1,309,365)"><g><path fill="none" stroke="none"/></g><g transform="matrix(0.125,0,0,0.125,0,0)"><g transform="matrix(1,0,0,1,0,0)"><path fill="#fef4ea" stroke="black" id="_3FC497C0-46E9-4CB4-B7AE-6AFA9697554B?shapeType=BACKGROUND" paint-order="fill stroke markers" d=" M 0 0 M 224.4 4.3 C 216.4 4.3 208.4 7.3 202.3 13.399999999999999 L 13.5 202.2 C 1.3000000000000007 214.39999999999998 1.3000000000000007 234.2 13.5 246.39999999999998 L 202.2 435.09999999999997 C 208.29999999999998 441.2 216.39999999999998 444.2 224.29999999999998 444.2 C 232.2 444.2 240.29999999999998 441.2 246.39999999999998 435.09999999999997 L 435.09999999999997 246.39999999999998 C 447.29999999999995 234.2 447.29999999999995 214.39999999999998 435.09999999999997 202.2 L 246.5 13.4 C 240.4 7.3 232.4 4.3 224.4 4.3 L 224.4 4.3 Z" stroke-miterlimit="10" stroke-dasharray=""/></g><g><g transform="matrix(1,0,0,1,0,0)"><g transform="matrix(1,0,0,1,0,0)"><path fill="#ec7a08" stroke="black" id="_3FC497C0-46E9-4CB4-B7AE-6AFA9697554B?shapeType=BORDER&amp;renderType=FILL" paint-order="fill stroke markers" d=" M 0 0 M 20.8 212.7 L 213.3 20.2 C 219.60000000000002 13.899999999999999 229.70000000000002 13.899999999999999 235.9 20.2 L 428.4 212.7 C 434.7 219 434.7 229.1 428.4 235.29999999999998 L 235.9 427.8 C 229.6 434.1 219.5 434.1 213.3 427.8 L 20.8 235.3 C 14.5 229.1 14.5 218.9 20.8 212.7 L 20.8 212.7 Z M 0 0 M 0 224 C 0 232.1 3.1 240.3 9.3 246.5 L 201.5 438.7 C 213.9 451.09999999999997 234.1 451.09999999999997 246.5 438.7 L 438.7 246.5 C 444.9 240.3 448 232.1 448 224 C 448 215.9 444.9 207.7 438.7 201.5 L 246.5 9.3 C 234.1 -3.0999999999999996 213.9 -3.0999999999999996 201.5 9.3 L 9.3 201.5 C 3.1 207.7 0 215.9 0 224 L 0 224 Z" stroke-miterlimit="10" stroke-dasharray=""/></g></g></g><g><g transform="matrix(1,0,0,1,0,0)"><g transform="matrix(1,0,0,1,0,0)"><path fill="#ec7a08" stroke="black" id="_3FC497C0-46E9-4CB4-B7AE-6AFA9697554B_inclusive" paint-order="fill stroke markers" d=" M 0 0 M 224 127.9 C 249.6 127.9 273.8 137.9 291.9 156 C 310 174.2 320 198.3 320 223.9 C 320 249.5 310 273.6 291.9 291.8 C 273.79999999999995 309.90000000000003 249.7 319.90000000000003 223.99999999999997 319.90000000000003 C 198.29999999999995 319.90000000000003 174.2 309.90000000000003 156.09999999999997 291.8 C 138 273.7 128 249.6 128 223.9 C 128 198.20000000000002 138 174.10000000000002 156.1 156 C 174.2 137.89999999999998 198.4 127.9 224 127.9 M 224 111.9 C 162.1 111.9 112 162 112 223.9 C 112 285.8 162.1 335.9 224 335.9 C 285.9 335.9 336 285.79999999999995 336 223.89999999999998 C 336 162 285.9 111.9 224 111.9 L 224 111.9 Z" stroke-miterlimit="10" stroke-dasharray=""/></g></g></g></g><g transform="matrix(1,0,0,1,28,61)"/></g><g transform="matrix(1,0,0,1,309,365)"/><g id="_B7470E3F-F615-4DDC-B57B-8B038FB627C1" bpmn2nodeid="_B7470E3F-F615-4DDC-B57B-8B038FB627C1" transform="matrix(1,0,0,1,309,268)"><g><path fill="none" stroke="none"/></g><g transform="matrix(0.125,0,0,0.125,0,0)"><g transform="matrix(1,0,0,1,0,0)"><path fill="#fbefcf" stroke="black" id="_B7470E3F-F615-4DDC-B57B-8B038FB627C1?shapeType=BACKGROUND" paint-order="fill stroke markers" d=" M 0 0 M 444 224 C 444 263.9 434.2 300.8 414.4 334.5 C 394.7 368.2 368 394.9 334.4 414.5 C 300.79999999999995 434.1 263.9 444 224 444 C 184.10000000000002 444 147.2 434.2 113.5 414.4 C 79.8 394.7 53.1 368 33.5 334.4 C 13.899999999999999 300.79999999999995 4 263.9 4 224 C 4 184.10000000000002 13.8 147.2 33.6 113.5 C 53.400000000000006 79.80000000000001 80.1 53.1 113.6 33.5 C 147.1 13.899999999999999 184.1 4 224 4 C 263.9 4 300.8 13.8 334.5 33.6 C 368.2 53.400000000000006 394.9 80.1 414.5 113.6 C 434.1 147.1 444 184.1 444 224 Z" stroke-miterlimit="10" stroke-dasharray=""/></g><g><g transform="matrix(1,0,0,1,0,0)"><g transform="matrix(1,0,0,1,0,0)"><path fill="#e5a000" stroke="none" id="_B7470E3F-F615-4DDC-B57B-8B038FB627C1?shapeType=BORDER&amp;renderType=FILL" paint-order="stroke fill markers" d=" M 0 0 M 224 408 C 122.5 408 40 325.5 40 224 C 40 122.5 122.5 40 224 40 C 325.5 40 408 122.5 408 224 C 408 325.5 325.5 408 224 408 Z M 0 0 M 224 56 C 131.4 56 56 131.4 56 224 C 56 316.6 131.4 392 224 392 C 316.6 392 392 316.6 392 224 C 392 131.39999999999998 316.6 56 224 56 Z M 0 0 M 224 16 C 252.1 16 279.3 21.5 305 32.3 C 329.8 42.8 352 57.8 371.1 76.9 C 390.20000000000005 96.00000000000001 405.20000000000005 118.30000000000001 415.70000000000005 143 C 426.50000000000006 168.6 432.00000000000006 195.9 432.00000000000006 224 C 432.00000000000006 252.1 426.50000000000006 279.3 415.70000000000005 305 C 405.20000000000005 329.8 390.20000000000005 352 371.1 371.1 C 352 390.20000000000005 329.70000000000005 405.20000000000005 305 415.70000000000005 C 279.4 426.50000000000006 252.1 432.00000000000006 224 432.00000000000006 C 195.9 432.00000000000006 168.7 426.50000000000006 143 415.70000000000005 C 118.2 405.20000000000005 96 390.20000000000005 76.9 371.1 C 57.80000000000001 352 42.8 329.7 32.3 305 C 21.5 279.3 16 252.1 16 224 C 16 195.9 21.5 168.7 32.3 143 C 42.8 118.2 57.8 96 76.9 76.9 C 96.00000000000001 57.80000000000001 118.30000000000001 42.800000000000004 143 32.300000000000004 C 168.7 21.5 195.9 16 224 16 M 224 0 C 100.3 0 0 100.3 0 224 C 0 347.7 100.3 448 224 448 C 347.7 448 448 347.7 448 224 C 448 100.30000000000001 347.7 0 224 0 L 224 0 Z"/></g></g></g><g><g transform="matrix(1,0,0,1,0,0)"><g transform="matrix(1,0,0,1,0,0)"><path fill="#e5a000" stroke="black" id="_B7470E3F-F615-4DDC-B57B-8B038FB627C1_wait" paint-order="fill stroke markers" d=" M 0 0 M 240.2 176.7 L 240.2 232.7 C 240.2 233.89999999999998 239.79999999999998 234.79999999999998 239.1 235.6 C 238.4 236.4 237.4 236.7 236.2 236.7 L 196.2 236.7 C 195 236.7 194.1 236.29999999999998 193.29999999999998 235.6 C 192.49999999999997 234.9 192.2 233.9 192.2 232.7 L 192.2 224.7 C 192.2 223.5 192.6 222.6 193.29999999999998 221.79999999999998 C 193.99999999999997 220.99999999999997 194.99999999999997 220.7 196.2 220.7 L 224.2 220.7 L 224.2 176.7 C 224.2 175.5 224.6 174.6 225.29999999999998 173.79999999999998 C 225.99999999999997 172.99999999999997 226.99999999999997 172.7 228.2 172.7 L 236.2 172.7 C 237.29999999999998 172.7 238.29999999999998 173.1 239.1 173.79999999999998 C 239.9 174.5 240.2 175.5 240.2 176.7 Z M 0 0 M 300.2 220.7 C 300.2 206.89999999999998 296.8 194.2 290.09999999999997 182.6 C 283.29999999999995 171 274.09999999999997 161.7 262.49999999999994 154.9 C 250.79999999999995 148.1 238.09999999999994 144.70000000000002 224.29999999999995 144.70000000000002 C 210.49999999999997 144.70000000000002 197.79999999999995 148.10000000000002 186.19999999999996 154.9 C 174.59999999999997 161.70000000000002 165.39999999999995 170.9 158.59999999999997 182.5 C 151.79999999999998 194.1 148.39999999999998 206.9 148.39999999999998 220.7 C 148.39999999999998 234.49999999999997 151.79999999999998 247.2 158.49999999999997 258.8 C 165.29999999999998 270.40000000000003 174.59999999999997 279.7 186.19999999999996 286.5 C 197.79999999999995 293.3 210.49999999999997 296.7 224.29999999999995 296.7 C 238.09999999999994 296.7 250.79999999999995 293.3 262.4 286.5 C 274 279.7 283.29999999999995 270.5 290 258.9 C 296.8 247.2 300.2 234.5 300.2 220.7 Z M 0 0 M 320.2 220.7 C 320.2 238.1 315.9 254.2 307.3 268.9 C 298.7 283.59999999999997 287.1 295.29999999999995 272.40000000000003 303.79999999999995 C 257.70000000000005 312.4 241.60000000000002 316.69999999999993 224.20000000000005 316.69999999999993 C 206.80000000000007 316.69999999999993 190.70000000000005 312.3999999999999 176.00000000000006 303.79999999999995 C 161.30000000000007 295.19999999999993 149.70000000000005 283.59999999999997 141.10000000000005 268.9 C 132.50000000000006 254.2 128.30000000000004 238.09999999999997 128.30000000000004 220.7 C 128.30000000000004 203.3 132.60000000000005 187.2 141.20000000000005 172.5 C 149.80000000000004 157.8 161.40000000000003 146.1 176.10000000000005 137.5 C 190.80000000000004 128.9 206.90000000000006 124.7 224.30000000000007 124.7 C 241.70000000000007 124.7 257.80000000000007 129 272.50000000000006 137.6 C 287.20000000000005 146.2 298.90000000000003 157.9 307.40000000000003 172.5 C 316 187.2 320.2 203.3 320.2 220.7 Z" stroke-miterlimit="10" stroke-dasharray=""/></g></g></g></g><g transform="matrix(1,0,0,1,28,61)"/></g><g transform="matrix(1,0,0,1,309,268)"/><g id="_E7CF9FC9-871C-4F51-85B3-242F32A7600C" bpmn2nodeid="_E7CF9FC9-871C-4F51-85B3-242F32A7600C" transform="matrix(1,0,0,1,580,342)"><g><path fill="none" stroke="none"/></g><g transform="matrix(1,0,0,1,0,0)"><path fill="#ffffff" stroke="none" id="_E7CF9FC9-871C-4F51-85B3-242F32A7600C?shapeType=BACKGROUND" paint-order="stroke fill markers" d=" M 2 0 L 152 0 L 152 0 A 2 2 0 0 1 154 2 L 154 100 L 154 100 A 2 2 0 0 1 152 102 L 2 102 L 2 102 A 2 2 0 0 1 0 100 L 0 2 L 0 2.0000000000000004 A 2 2 0 0 1 1.9999999999999996 0 Z"/></g><g transform="matrix(1,0,0,1,0,0)"><path fill="none" stroke="#000000" id="_E7CF9FC9-871C-4F51-85B3-242F32A7600C?shapeType=BORDER&amp;renderType=STROKE" paint-order="fill stroke markers" d=" M 2 0 L 152 0 L 152 0 A 2 2 0 0 1 154 2 L 154 100 L 154 100 A 2 2 0 0 1 152 102 L 2 102 L 2 102 A 2 2 0 0 1 0 100 L 0 2 L 0 2.0000000000000004 A 2 2 0 0 1 1.9999999999999996 0 Z" stroke-miterlimit="10" stroke-width="1.5" stroke-dasharray=""/></g><g><g transform="matrix(0.06,0,0,0.06,9.4,9.4)"><g transform="matrix(1,0,0,1,0,0)"><path fill="#393f44" stroke="black" id="_E7CF9FC9-871C-4F51-85B3-242F32A7600C_task__ZFM2__p3wP" paint-order="fill stroke markers" d=" M 0 0 M 197.3 130.2 C 194.4 127.29999999999998 189.60000000000002 127.29999999999998 186.70000000000002 130.2 L 130.20000000000002 186.7 C 127.30000000000001 189.6 127.30000000000001 194.39999999999998 130.20000000000002 197.29999999999998 L 186.70000000000002 253.79999999999998 C 188.10000000000002 255.29999999999998 190.10000000000002 255.99999999999997 192.00000000000003 255.99999999999997 C 193.90000000000003 255.99999999999997 195.90000000000003 255.29999999999998 197.30000000000004 253.69999999999996 C 200.20000000000005 250.79999999999995 200.20000000000005 245.99999999999997 197.30000000000004 243.09999999999997 L 146.2 192 L 197.29999999999998 140.8 C 200.2 137.9 200.2 133.1 197.3 130.2 Z" stroke-miterlimit="10" stroke-dasharray=""/></g><g transform="matrix(1,0,0,1,0,0)"><path fill="#393f44" stroke="black" id="_E7CF9FC9-871C-4F51-85B3-242F32A7600C_task__ZFM2__ByeH" paint-order="fill stroke markers" d=" M 0 0 M 261.3 130.2 C 258.40000000000003 127.29999999999998 253.60000000000002 127.29999999999998 250.70000000000002 130.2 C 247.8 133.1 247.8 137.89999999999998 250.70000000000002 140.79999999999998 L 301.8 191.89999999999998 L 250.7 243 C 247.79999999999998 245.9 247.79999999999998 250.7 250.7 253.6 C 252.1 255.29999999999998 254.1 256 256 256 C 257.9 256 259.9 255.3 261.3 253.8 L 317.8 197.3 C 320.7 194.4 320.7 189.60000000000002 317.8 186.70000000000002 L 261.3 130.2 Z" stroke-miterlimit="10" stroke-dasharray=""/></g><g transform="matrix(1,0,0,1,0,0)"><path fill="#393f44" stroke="black" id="_E7CF9FC9-871C-4F51-85B3-242F32A7600C_task__ZFM2__KJwk" paint-order="fill stroke markers" d=" M 0 0 M 400 32 C 400 32 152.8 32 128 32 C 62 32 64 96 64 96 L 64 288 L 1 288 C 1 288 -4 416 78 416 L 320 416 C 368 416 384 368 384 336 C 384 314.2 384 224.4 384 160 L 448 160 L 448 96 C 448 96 449 32 400 32 Z M 0 0 M 78 383.9 C 68.5 383.9 61.6 381.09999999999997 55.5 374.9 C 43.4 362.4 37.5 339.59999999999997 34.9 320 L 256.9 320 C 257.09999999999997 322.7 257.29999999999995 325.4 257.59999999999997 328.2 C 259.99999999999994 351.59999999999997 264.7 370.09999999999997 271.9 383.9 L 78 383.9 L 78 383.9 Z M 0 0 M 352 336 C 352 345.9 349.6 360.3 342.9 371 C 337.2 380.1 330.4 384 320 384 C 285 384 288 288 288 288 L 96 288 L 96 96 L 96 95.9 L 96 95.10000000000001 C 96 90.60000000000001 97.6 78.30000000000001 104.7 71.20000000000002 C 106.5 69.40000000000002 111.9 64.00000000000001 128 64.00000000000001 L 356.5 64.00000000000001 C 354.4 72.80000000000001 352.8 81.80000000000001 352.2 89.9 C 352.2 90.5 352.09999999999997 91.10000000000001 352.09999999999997 91.7 C 352.09999999999997 92 352.09999999999997 92.3 352.09999999999997 92.60000000000001 C 352 94.8 352 96 352 96 L 352 160 L 352 336 Z" stroke-miterlimit="10" stroke-dasharray=""/></g></g></g><g transform="matrix(1,0,0,1,55.34375,43.5)"><text fill="#000000" stroke="none" font-family="Open Sans" font-size="12pt" font-style="normal" font-weight="normal" text-decoration="normal" x="21.65625" y="12" text-anchor="middle" dominant-baseline="alphabetic">Prints</text></g></g><g transform="matrix(1,0,0,1,580,342)"/><g id="_7DC97902-32DF-4E49-85CD-CEE67D7BAB1C" bpmn2nodeid="_7DC97902-32DF-4E49-85CD-CEE67D7BAB1C"><g><path fill="none" stroke="#000000" paint-order="fill stroke markers" d=" M 241 393 L 294 393" stroke-miterlimit="10" stroke-dasharray=""/></g><g transform="matrix(1,0,0,1,241,393)"/><g transform="matrix(6.123233995736766e-17,1,-1,6.123233995736766e-17,309,388)"><path fill="#000000" stroke="#000000" paint-order="fill stroke markers" d=" M 10 15 L 0 15 L 5 0 Z" stroke-miterlimit="10" stroke-dasharray=""/></g><g transform="matrix(1,0,0,1,241,383)"/></g><g id="_A74D499F-028A-47CD-B524-6DA9E27A2F3B" bpmn2nodeid="_A74D499F-028A-47CD-B524-6DA9E27A2F3B"><g><path fill="none" stroke="#000000" paint-order="fill stroke markers" d=" M 365 393 L 381 393" stroke-miterlimit="10" stroke-dasharray=""/></g><g transform="matrix(1,0,0,1,365,393)"/><g transform="matrix(6.123233995736766e-17,1,-1,6.123233995736766e-17,396,388)"><path fill="#000000" stroke="#000000" paint-order="fill stroke markers" d=" M 10 15 L 0 15 L 5 0 Z" stroke-miterlimit="10" stroke-dasharray=""/></g><g transform="matrix(1,0,0,1,365,383)"/></g><g id="_637E83E6-1E34-491F-B6F7-6C6D6F4D77DB" bpmn2nodeid="_637E83E6-1E34-491F-B6F7-6C6D6F4D77DB"><g><path fill="none" stroke="#000000" paint-order="fill stroke markers" d=" M 550 393 L 565 393" stroke-miterlimit="10" stroke-dasharray=""/></g><g transform="matrix(1,0,0,1,550,393)"/><g transform="matrix(6.123233995736766e-17,1,-1,6.123233995736766e-17,580,388)"><path fill="#000000" stroke="#000000" paint-order="fill stroke markers" d=" M 10 15 L 0 15 L 5 0 Z" stroke-miterlimit="10" stroke-dasharray=""/></g><g transform="matrix(1,0,0,1,550,383)"/></g><g id="_E7FDE93D-4B93-4AEA-9C72-4ADFD6746E4E" bpmn2nodeid="_E7FDE93D-4B93-4AEA-9C72-4ADFD6746E4E"><g><path fill="none" stroke="#000000" paint-order="fill stroke markers" d=" M 734 393 L 760 393" stroke-miterlimit="10" stroke-dasharray=""/></g><g transform="matrix(1,0,0,1,734,393)"/><g transform="matrix(6.123233995736766e-17,1,-1,6.123233995736766e-17,775,388)"><path fill="#000000" stroke="#000000" paint-order="fill stroke markers" d=" M 10 15 L 0 15 L 5 0 Z" stroke-miterlimit="10" stroke-dasharray=""/></g><g transform="matrix(1,0,0,1,734,383)"/></g><g id="_2E0CDC64-6758-4131-A226-A0D04AE7DDE5" bpmn2nodeid="_2E0CDC64-6758-4131-A226-A0D04AE7DDE5"><g><path fill="none" stroke="#000000" paint-order="fill stroke markers" d=" M 802.9999992271204 365 L 802.9999973225242 296 L 380 296" stroke-miterlimit="10" stroke-dasharray=""/></g><g transform="matrix(1,0,0,1,802.9999992271204,365)"/><g transform="matrix(-1.8369701987210297e-16,-1,1,-1.8369701987210297e-16,365,301)"><path fill="#000000" stroke="#000000" paint-order="fill stroke markers" d=" M 10 15 L 0 15 L 5 0 Z" stroke-miterlimit="10" stroke-dasharray=""/></g><g transform="matrix(1,0,0,1,812.9999973225242,319.4999997239716)"><text fill="#000000" stroke="none" font-family="Open Sans" font-size="10pt" font-style="normal" font-weight="normal" text-decoration="normal" x="0" y="8.8" text-anchor="start" dominant-baseline="alphabetic">count &lt; 5   </text></g></g><g id="_0872BD59-C713-4223-9D31-102AD54A5FBA" bpmn2nodeid="_0872BD59-C713-4223-9D31-102AD54A5FBA"><g><path fill="none" stroke="#000000" paint-order="fill stroke markers" d=" M 337 324 L 337 350" stroke-miterlimit="10" stroke-dasharray=""/></g><g transform="matrix(1,0,0,1,337,324)"/><g transform="matrix(-1,1.2246467991473532e-16,-1.2246467991473532e-16,-1,342,365)"><path fill="#000000" stroke="#000000" paint-order="fill stroke markers" d=" M 10 15 L 0 15 L 5 0 Z" stroke-miterlimit="10" stroke-dasharray=""/></g><g transform="matrix(1,0,0,1,347,344.5)"/></g><g id="_C8AE83AC-7B64-4B96-BE99-A5389A127ADB" bpmn2nodeid="_C8AE83AC-7B64-4B96-BE99-A5389A127ADB"><g><path fill="none" stroke="#000000" paint-order="fill stroke markers" d=" M 831 393 L 866 393" stroke-miterlimit="10" stroke-dasharray=""/></g><g transform="matrix(1,0,0,1,831,393)"/><g transform="matrix(6.123233995736766e-17,1,-1,6.123233995736766e-17,881,388)"><path fill="#000000" stroke="#000000" paint-order="fill stroke markers" d=" M 10 15 L 0 15 L 5 0 Z" stroke-miterlimit="10" stroke-dasharray=""/></g><g transform="matrix(1,0,0,1,831,361)"><text fill="#000000" stroke="none" font-family="Open Sans" font-size="10pt" font-style="normal" font-weight="normal" text-decoration="normal" x="0" y="8.8" text-anchor="start" dominant-baseline="alphabetic">count    </text><text fill="#000000" stroke="none" font-family="Open Sans" font-size="10pt" font-style="normal" font-weight="normal" text-decoration="normal" x="0" y="19.8" text-anchor="start" dominant-baseline="alphabetic">&gt;=5        </text></g></g></g></g></svg>